<svg version="1.1" id="Calque_1" xmlns="http://www.w3.org/2000/svg" xmlns:xlink="http://www.w3.org/1999/xlink" x="0px" y="0px"
	 viewBox="-41 164.9 512 512" style="enable-background:new -41 164.9 512 512;" xml:space="preserve">
<style type="text/css">
	.st0{fill-opacity:0;}
	.st1{fill:white;}
</style>
<path class="st0" d="M-41,164.9h512v512H-41V164.9z"/>
<g transform="translate(19,-64)">
	<path class="st1" d="M184.1,312.9C143.1,314.1,104,331,75,360c-62.9,62.9-62.8,164.9,0.1,227.8c48.4,48.4,122.1,60.9,183.8,31.2
		c7.7,8.7,21,9.4,29.7,1.7c6.9-6.2,9-16.1,5.1-24.5c3.1-2.7,6.1-5.5,9.1-8.4c30.3-30.1,47.3-71.1,47.2-113.9
		c0-88.9-72.1-161-161-161C187.3,312.8,185.7,312.9,184.1,312.9z M189.7,323.3c83.1,0.7,149.8,68.6,149.1,151.6
		c-0.3,39.4-16.1,77.1-43.9,105c-2.7,2.7-5.5,5.3-8.4,7.8c-9.6-6.6-22.7-4.2-29.3,5.3c-3.2,4.7-4.4,10.5-3.3,16.1
		c-74.8,36.1-164.7,4.8-200.8-70s-4.8-164.7,70-200.8C143.8,328.3,166.7,323.1,189.7,323.3z M184.2,367.2
		c-27.6,1.2-53.6,13.1-72.7,33.1v4.7h17.4l5.5,11.4l14.2-3.2l17.9-1.4l18.8,9.2l9.6,9.7l-6,8.2l-18.8,3.7l9.6,13.5l3.3,5.1
		l-8.7,12.8l-13.3-3.7l-11.4,4.7l-4.1,8.5h-17.9l-7.3-9.1v-16.5l-13.3-1.7l-6.9,14.1l-2.3,18.2l5.9,14.7l11.4,12.8l5.1,16l-4.6,5.5
		l-16.1-4.9c32.4,49.3,98.6,62.9,147.9,30.5c39.2-25.8,57-74.2,43.8-119.2l-8.1,23.7L244.3,503l-7.8-10.3l17-31.5l-0.5-19.1
		l-16.5,11l-5-19.1l21.5-44.6h1C234,374,209.3,366.1,184.2,367.2L184.2,367.2z M206.6,487l13,3.1l4.2,20.4L203,530l-3.2,34.9
		l-13.6,8.1l-9.2-21.1l-20.5-11.7l-9.3-26l8.8-19.5L206.6,487z"/>
</g>
</svg>
